<svg xmlns="http://www.w3.org/2000/svg" viewBox="0 0 340 200" role="img"><title>종합·현황</title><defs><linearGradient id="bg" x2="1" y2="1"><stop stop-color="#e0e8f4"/><stop offset="1" stop-color="#f2f6fc"/></linearGradient><filter id="shadow" x="-30%" y="-30%" width="170%" height="180%"><feDropShadow dx="3" dy="7" stdDeviation="5" flood-color="#7a96bd" flood-opacity=".16"/></filter></defs><rect width="340" height="200" rx="12" fill="url(#bg)"/><circle cx="286" cy="35" r="84" fill="none" stroke="#fff" stroke-opacity=".65"/><circle cx="286" cy="35" r="65" fill="none" stroke="#fff" stroke-opacity=".4"/><path d="m0 172 185-102" stroke="#fff" stroke-opacity=".5"/><g filter="url(#shadow)" transform="rotate(-4 170 100)"><rect x="75" y="34" width="191" height="137" rx="10" fill="#ffffff" fill-opacity=".85" stroke="#fff"/><path d="M76 54h189" stroke="#e5edf7"/><circle cx="88" cy="44" r="2" fill="#7a96bd" opacity=".55"/><circle cx="96" cy="44" r="2" fill="#7a96bd" opacity=".35"/><circle cx="104" cy="44" r="2" fill="#7a96bd" opacity=".2"/><rect x="104" y="57" width="129" height="98" rx="7" fill="#f7faff" stroke="#d2dfee"/><rect x="115" y="68" width="45" height="31" rx="4" fill="#b7cde9"/><rect x="167" y="68" width="54" height="31" rx="4" fill="#dce6f4"/><rect x="115" y="106" width="45" height="37" rx="4" fill="#e1eaf6"/><rect x="167" y="106" width="54" height="37" rx="4" fill="#c5d8ee"/><path d="m174 132 12-10 10 4 15-11" fill="none" stroke="#7a96bd" stroke-width="3"/><path d="M123 117h27m-27 9h18" stroke="#a5bfdf" stroke-width="3" stroke-linecap="round"/></g><path d="M44 83h10m-5-5v10M283 139h8m-4-4v8" stroke="#7a96bd" stroke-width="2" stroke-linecap="round" opacity=".4"/><circle cx="278" cy="161" r="3" fill="#7a96bd" opacity=".3"/></svg>